<?xml version="1.0" encoding="UTF-8"?>
<svg id="Layer_1" data-name="Layer 1" xmlns="http://www.w3.org/2000/svg" viewBox="0 0 433.94 174.27">
  <defs>
    <style>
      .cls-1 {
        fill: #fff;
      }

      .cls-1, .cls-2 {
        stroke-width: 0px;
      }

      .cls-2 {
        fill: #08ffa9;
      }
    </style>
  </defs>
  <g>
    <g>
      <path class="cls-1" d="M45.76,155.12c-2.49-2.13-5.57-3.19-9.24-3.19s-6.61,1.06-9.1,3.19c-2.54,2.25-3.81,4.86-3.81,7.84s1.23,5.56,3.68,7.66c2.6,2.19,5.68,3.28,9.23,3.28s6.69-1.09,9.24-3.28c2.49-2.13,3.73-4.68,3.73-7.66s-1.24-5.62-3.73-7.84Z"/>
      <path class="cls-1" d="M102.17,105.89v22.34c0,2.43.06,4.88.18,7.37.09,1.82.27,3.53.54,5.14l-20.65-34.85h-23.48v66.6h23.11v-24.02c0-1.48-.06-3.41-.18-5.77-.09-1.7-.27-3.29-.54-4.78l20.42,34.57h23.7v-66.6h-23.11Z"/>
      <path class="cls-1" d="M203.83,125.64c-1.78-4.19-4.29-7.92-7.5-11.2-3.37-3.27-7.22-5.79-11.56-7.54-4.37-1.67-9.04-2.5-14.01-2.5s-9.72.83-14.06,2.5c-4.31,1.79-8.12,4.3-11.46,7.54-3.28,3.34-5.8,7.07-7.55,11.2-1.67,4.15-2.51,8.71-2.51,13.69s.84,9.54,2.51,13.68c1.69,4.04,4.21,7.74,7.55,11.1,3.45,3.31,7.3,5.83,11.55,7.56,4.37,1.72,9.02,2.59,13.97,2.59s9.53-.87,13.92-2.59c4.39-1.79,8.24-4.27,11.51-7.46,3.21-3.22,5.73-6.97,7.55-11.28,1.75-4.16,2.64-8.7,2.64-13.6s-.85-9.48-2.56-13.69ZM184.08,142.01c0,.88-.15,1.72-.45,2.55-.65,1.72-1.75,3.12-3.05,4.38-2.59,2.49-5.62,4.34-8.85,5.89-.31.14-.6.12-.91-.02-2.23-1.07-4.35-2.3-6.33-3.78-1.63-1.22-3.14-2.57-4.33-4.26-.98-1.38-1.63-2.88-1.63-4.6-.02-4.33,0-8.64,0-12.96,0-.56.23-.85.76-1.01,3.26-.97,6.51-1.95,9.76-2.92.67-.21,1.36-.37,2.01-.64h.47c.08.09.2.09.3.12,3.81,1.14,7.61,2.28,11.42,3.43.64.19.82.45.82,1.12v12.72Z"/>
      <path class="cls-1" d="M279.35,105.89l-5.22,29.35c-.12.66-.29,1.8-.5,3.39-.21,1.59-.4,2.81-.55,3.66-.18,1.46-.33,3.49-.45,6.09h-.55c-.09-2.69-.56-6.19-1.41-10.46l-.18-.91-6.32-31.12h-16.88l-6.32,31.12c-.03.11-.05.24-.07.36-.02.12-.05.31-.11.55-.85,4.18-1.32,7.67-1.41,10.46h-.54c-.12-2.6-.29-4.64-.5-6.09-.43-3.3-.75-5.65-1-7.05l-5.23-29.35h-24.02l19.47,66.6h20.88l5-22.75c.06-.18.12-.42.18-.72.06-.31.12-.6.18-.86.91-4.37,1.41-7.49,1.5-9.37h.86c.06,1.76.55,4.88,1.46,9.37.03.09.08.27.14.54s.11.48.16.62.08.27.11.43l5,22.75h20.89l19.47-66.6h-24.02Z"/>
    </g>
    <g>
      <path class="cls-1" d="M67.68,70.51c-2.46,1-4.82,1.5-7.09,1.5-3.82,0-6.87-1.14-9.15-3.43s-3.41-5.44-3.41-9.44,1.2-7.2,3.59-9.6c2.36-2.43,5.51-3.64,9.42-3.64,2.43,0,4.82.53,7.19,1.59,2.4,1.03,4.62,2.58,6.69,4.64v-24.65c-2.4-1.09-4.94-1.95-7.6-2.55-2.73-.55-5.42-.82-8.06-.82-5.1,0-9.81.84-14.15,2.5-4.33,1.67-8.15,4.16-11.46,7.46-3.34,3.4-5.83,7.16-7.47,11.28-1.72,4.07-2.59,8.67-2.59,13.78,0,6.7,1.51,12.66,4.55,17.88,2.97,5.1,7.41,9.39,13.33,12.88,2.49,1.4,5.19,2.41,8.1,3.04,3.03.76,6.17,1.14,9.41,1.14,2.7,0,5.31-.29,7.83-.87,2.43-.43,5.03-1.2,7.83-2.32l.77-25.07c-2.61,1.98-5.19,3.53-7.73,4.68Z"/>
      <path class="cls-2" d="M151.8,45.45c-1.79-4.2-4.29-7.92-7.51-11.2-3.36-3.27-7.22-5.79-11.55-7.54-4.37-1.68-9.05-2.51-14.01-2.51s-9.73.83-14.06,2.51c-4.31,1.78-8.13,4.3-11.46,7.54-3.28,3.33-5.8,7.07-7.55,11.2-1.67,4.15-2.5,8.71-2.5,13.69s.83,9.54,2.5,13.68c1.7,4.04,4.22,7.73,7.55,11.1,3.46,3.31,7.31,5.83,11.56,7.55,4.36,1.73,9.02,2.59,13.97,2.59s9.52-.86,13.92-2.59c4.39-1.79,8.23-4.27,11.5-7.45,3.22-3.22,5.74-6.98,7.55-11.29,1.75-4.15,2.64-8.69,2.64-13.59s-.85-9.48-2.55-13.69ZM131.53,61.82c0,.88-.15,1.72-.46,2.55-.64,1.72-1.75,3.12-3.05,4.37-2.59,2.5-5.62,4.34-8.84,5.89-.31.15-.61.12-.91-.02-2.23-1.07-4.36-2.3-6.34-3.78-1.63-1.22-3.14-2.57-4.33-4.25-.97-1.38-1.62-2.88-1.63-4.61,0-4.32,0-8.64,0-12.95,0-.56.23-.85.76-1.01,3.25-.98,6.51-1.95,9.76-2.92.68-.21,1.37-.37,2.02-.64h.47c.08.08.19.08.29.11,3.81,1.14,7.62,2.29,11.43,3.43.63.19.82.45.82,1.11v12.72Z"/>
      <path class="cls-1" d="M238.18,25.7h-24.65l-4.96,16.19c-1.37,4.4-2.33,7.98-2.91,10.74-.72,3.15-1.27,6.16-1.63,9h-.41c-.43-4.15-1.66-9.87-3.68-17.15-.4-1.24-.63-2.01-.69-2.32l-4.73-16.47h-24.7l-11.37,66.6h23.47l2.91-26.39c.24-2.73.43-4.74.54-6.05.06-1.18.21-3.23.46-6.14.18,1.37.56,3.38,1.14,6.05.46,2.18,1.08,4.49,1.87,6.91l7.64,25.62h14.23l7.64-25.62c.88-2.94,1.5-5.24,1.87-6.91.42-2.03.8-4.05,1.14-6.05.06,1.49.21,3.5.45,6.05.09,1,.18,2.01.27,3.04.09,1.04.18,2.07.27,3.1l2.91,26.39h23.47l-10.56-66.6Z"/>
      <path class="cls-1" d="M306.01,31.56c-4.64-3.91-11.99-5.87-22.06-5.87h-28.61v66.6h23.97v-19.65h7.51c9.1,0,15.76-1.84,19.97-5.51,4.16-3.61,6.24-9.33,6.24-17.15,0-8.47-2.34-14.61-7.01-18.43ZM284.18,58.51c-4.83,0-8.73-3.91-8.73-8.73s3.91-8.73,8.73-8.73,8.73,3.91,8.73,8.73-3.91,8.73-8.73,8.73Z"/>
      <path class="cls-1" d="M345.3,70.69V25.7h-23.95v66.6h47.22v-21.61h-23.27Z"/>
      <path class="cls-1" d="M406.83,25.7l-5.51,12.92c-.03.06-.07.16-.11.29-.05.14-.13.33-.25.57-.88,2.18-1.44,3.73-1.68,4.64-.03-.06-.05-.11-.07-.18-.02-.05-.05-.14-.11-.27-.4-1.43-.98-3.11-1.78-5.05l-5.59-12.92h-27.3l22.3,37.16v29.44h24.1v-29.44l23.11-37.16h-27.11Z"/>
    </g>
  </g>
  <g>
    <rect class="cls-2" width="15.01" height="59.58"/>
    <rect class="cls-2" x="22.28" y="-22.28" width="15.01" height="59.58" transform="translate(37.3 -22.28) rotate(90)"/>
  </g>
</svg>