<?xml version="1.0" encoding="UTF-8"?>
<svg id="Layer_1" data-name="Layer 1" xmlns="http://www.w3.org/2000/svg" viewBox="0 0 1749.27 235.6">
  <defs>
    <style>
      .cls-1 {
        fill: #fff;
      }

      .cls-1, .cls-2 {
        stroke-width: 0px;
      }

      .cls-2 {
        fill: #08ffa9;
      }
    </style>
  </defs>
  <g>
    <g>
      <path class="cls-1" d="M1114.2,188.4c-6.13-5.25-13.73-7.86-22.77-7.86s-16.3,2.61-22.43,7.86c-6.26,5.55-9.4,11.98-9.4,19.33s3.03,13.71,9.08,18.88c6.41,5.4,14.01,8.09,22.75,8.09s16.49-2.69,22.77-8.09c6.13-5.25,9.2-11.55,9.2-18.88s-3.06-13.86-9.2-19.33Z"/>
      <path class="cls-1" d="M1253.26,67.04v55.08c0,5.98.15,12.03.45,18.17.23,4.48.68,8.71,1.34,12.67l-50.9-85.92h-57.88v164.18h56.98v-59.22c0-3.65-.15-8.41-.45-14.23-.22-4.19-.68-8.1-1.34-11.77l50.34,85.22h58.43V67.04h-56.96Z"/>
      <path class="cls-1" d="M1503.89,115.72c-4.4-10.32-10.57-19.52-18.49-27.61-8.31-8.07-17.81-14.27-28.49-18.6-10.77-4.12-22.28-6.17-34.54-6.17s-23.96,2.05-34.66,6.17c-10.62,4.4-20.03,10.61-28.24,18.6-8.09,8.24-14.29,17.43-18.62,27.61-4.12,10.23-6.19,21.47-6.19,33.75s2.07,23.51,6.19,33.74c4.17,9.97,10.38,19.09,18.62,27.36,8.5,8.16,18,14.37,28.47,18.64,10.78,4.25,22.25,6.39,34.43,6.39s23.49-2.14,34.32-6.39c10.83-4.42,20.31-10.53,28.38-18.39,7.92-7.94,14.12-17.19,18.62-27.81,4.32-10.25,6.51-21.44,6.51-33.53s-2.11-23.37-6.3-33.75ZM1455.21,156.08c0,2.16-.36,4.25-1.11,6.28-1.6,4.23-4.32,7.69-7.52,10.79-6.39,6.15-13.86,10.7-21.81,14.52-.77.36-1.49.3-2.24-.06-5.49-2.63-10.72-5.68-15.61-9.33-4.02-3.01-7.75-6.34-10.66-10.49-2.41-3.4-4.02-7.11-4.02-11.34-.04-10.66-.02-21.31-.02-31.95,0-1.37.56-2.11,1.88-2.5,8.03-2.39,16.04-4.8,24.07-7.2,1.65-.51,3.35-.9,4.96-1.58h1.17c.21.23.49.23.73.3,9.38,2.82,18.77,5.62,28.15,8.44,1.58.47,2.03,1.11,2.03,2.76v31.35Z"/>
      <path class="cls-1" d="M1690.06,67.04l-12.88,72.34c-.3,1.64-.72,4.44-1.24,8.35-.53,3.93-.98,6.94-1.35,9.03-.43,3.59-.81,8.61-1.11,15.02h-1.35c-.23-6.64-1.37-15.25-3.48-25.78l-.43-2.24-15.59-76.72h-41.61l-15.59,76.72c-.08.28-.13.58-.17.88-.04.3-.13.75-.28,1.35-2.09,10.31-3.25,18.92-3.48,25.78h-1.34c-.3-6.41-.71-11.43-1.24-15.02-1.05-8.14-1.86-13.93-2.46-17.38l-12.9-72.34h-59.22l48.01,164.18h51.47l12.34-56.08c.15-.43.3-1.03.45-1.79.15-.75.3-1.47.45-2.13,2.24-10.77,3.48-18.47,3.7-23.11h2.12c.15,4.34,1.35,12.04,3.59,23.11.08.23.19.66.34,1.34s.28,1.18.39,1.52c.11.34.19.68.26,1.05l12.34,56.08h51.49l47.99-164.18h-59.22Z"/>
    </g>
    <g>
      <path class="cls-1" d="M166.84,173.81c-6.06,2.46-11.89,3.7-17.49,3.7-9.42,0-16.94-2.82-22.55-8.46-5.6-5.64-8.41-13.41-8.41-23.28s2.95-17.75,8.86-23.66c5.83-5.98,13.58-8.97,23.22-8.97,5.98,0,11.88,1.32,17.71,3.93,5.9,2.54,11.4,6.36,16.49,11.43v-60.78c-5.92-2.69-12.17-4.8-18.73-6.28-6.73-1.35-13.35-2.03-19.86-2.03-12.56,0-24.18,2.07-34.88,6.17-10.68,4.12-20.1,10.25-28.24,18.39-8.24,8.39-14.37,17.66-18.41,27.81-4.25,10.02-6.38,21.36-6.38,33.98,0,16.53,3.72,31.22,11.21,44.08,7.32,12.56,18.28,23.15,32.85,31.74,6.13,3.44,12.79,5.94,19.97,7.5,7.46,1.88,15.21,2.82,23.2,2.82,6.66,0,13.09-.71,19.29-2.14,5.98-1.05,12.41-2.95,19.29-5.72l1.9-61.79c-6.43,4.87-12.79,8.71-19.07,11.55Z"/>
      <path class="cls-2" d="M374.2,112.04c-4.4-10.34-10.57-19.52-18.5-27.61-8.29-8.07-17.79-14.27-28.47-18.6-10.77-4.14-22.3-6.19-34.54-6.19s-23.98,2.05-34.66,6.19c-10.62,4.4-20.05,10.61-28.26,18.6-8.09,8.22-14.29,17.43-18.62,27.61-4.12,10.23-6.17,21.48-6.17,33.75s2.05,23.51,6.17,33.74c4.19,9.95,10.4,19.07,18.62,27.36,8.52,8.16,18.01,14.37,28.49,18.62,10.76,4.27,22.23,6.39,34.43,6.39s23.47-2.13,34.32-6.39c10.83-4.4,20.29-10.53,28.36-18.37,7.94-7.94,14.14-17.21,18.62-27.83,4.32-10.23,6.51-21.42,6.51-33.51s-2.09-23.37-6.28-33.75ZM324.24,152.39c0,2.16-.38,4.25-1.13,6.28-1.58,4.23-4.31,7.69-7.52,10.78-6.39,6.17-13.86,10.7-21.8,14.52-.77.38-1.5.3-2.24-.06-5.49-2.63-10.74-5.68-15.63-9.33-4.02-3.01-7.75-6.34-10.66-10.47-2.39-3.4-4.01-7.11-4.02-11.36-.02-10.64,0-21.29,0-31.93,0-1.37.56-2.11,1.88-2.5,8.01-2.41,16.04-4.8,24.05-7.2,1.67-.51,3.37-.9,4.98-1.58h1.17c.19.21.47.21.72.28,9.38,2.82,18.79,5.64,28.17,8.46,1.56.47,2.03,1.11,2.03,2.75v31.37Z"/>
      <path class="cls-1" d="M587.16,63.35h-60.78l-12.22,39.92c-3.37,10.85-5.75,19.67-7.18,26.48-1.79,7.77-3.14,15.18-4.02,22.19h-1.02c-1.05-10.23-4.08-24.33-9.08-42.27-.98-3.07-1.54-4.96-1.69-5.72l-11.66-40.6h-60.89l-28.04,164.18h57.86l7.18-65.05c.6-6.73,1.05-11.7,1.34-14.91.15-2.91.53-7.97,1.13-15.14.45,3.37,1.39,8.33,2.8,14.91,1.13,5.38,2.65,11.06,4.61,17.04l18.84,63.15h35.09l18.84-63.15c2.16-7.24,3.7-12.92,4.61-17.04,1.03-5,1.98-9.99,2.8-14.91.15,3.67.53,8.63,1.11,14.91.23,2.46.45,4.96.68,7.5.23,2.56.45,5.1.68,7.63l7.18,65.05h57.86l-26.03-164.18Z"/>
      <path class="cls-1" d="M754.37,77.81c-11.43-9.63-29.56-14.46-54.38-14.46h-70.54v164.18h59.08v-48.44h18.5c22.43,0,38.85-4.53,49.23-13.58,10.25-8.89,15.38-23,15.38-42.27,0-20.87-5.77-36.01-17.28-45.43ZM700.55,144.25c-11.9,0-21.53-9.63-21.53-21.51s9.63-21.53,21.53-21.53,21.51,9.65,21.51,21.53-9.63,21.51-21.51,21.51Z"/>
      <path class="cls-1" d="M851.22,174.26V63.35h-59.05v164.18h116.4v-53.27h-57.35Z"/>
      <path class="cls-1" d="M1002.9,63.35l-13.58,31.85c-.08.15-.17.4-.28.71-.11.34-.32.81-.62,1.41-2.16,5.38-3.55,9.2-4.14,11.43-.08-.15-.13-.28-.17-.45-.04-.13-.13-.36-.28-.66-.98-3.52-2.43-7.67-4.38-12.45l-13.78-31.85h-67.3l54.97,91.62v72.57h59.42v-72.57l56.98-91.62h-66.83Z"/>
    </g>
  </g>
  <g>
    <rect class="cls-2" y="0" width="37.01" height="146.87"/>
    <rect class="cls-2" x="54.93" y="-54.93" width="37.01" height="146.87" transform="translate(91.94 -54.93) rotate(90)"/>
  </g>
</svg>