<?xml version="1.0" encoding="UTF-8"?>
<svg id="Layer_1" data-name="Layer 1" xmlns="http://www.w3.org/2000/svg" viewBox="0 0 174.27 174.27">
  <defs>
    <style>
      .cls-1 {
        fill: #1e7c50;
        stroke-width: 0px;
      }
    </style>
  </defs>
  <path class="cls-1" d="M168.03,53.64c-4.37-10.27-10.49-19.38-18.37-27.41-8.23-8.01-17.66-14.17-28.27-18.47-10.7-4.11-22.15-6.14-34.3-6.14s-23.81,2.04-34.41,6.14c-10.55,4.37-19.91,10.53-28.06,18.47-8.03,8.16-14.19,17.31-18.49,27.41C2.04,63.79,0,74.96,0,87.15s2.04,23.34,6.13,33.5c4.16,9.88,10.33,18.93,18.49,27.17,8.46,8.1,17.89,14.27,28.29,18.49,10.68,4.24,22.07,6.35,34.19,6.35s23.3-2.11,34.08-6.35c10.75-4.37,20.15-10.46,28.16-18.24,7.88-7.88,14.04-17.09,18.49-27.64,4.29-10.16,6.46-21.27,6.46-33.27s-2.07-23.21-6.24-33.52ZM118.42,93.71c0,2.15-.37,4.22-1.12,6.24-1.57,4.2-4.28,7.64-7.47,10.7-6.35,6.12-13.76,10.62-21.64,14.41-.76.37-1.49.3-2.22-.06-5.45-2.61-10.66-5.64-15.52-9.26-4-2.99-7.69-6.29-10.59-10.4-2.37-3.38-3.98-7.06-4-11.28-.02-10.57,0-21.14,0-31.71,0-1.36.56-2.09,1.87-2.48,7.95-2.39,15.93-4.76,23.88-7.15,1.66-.5,3.34-.9,4.95-1.57h1.16c.19.21.47.21.71.28,9.32,2.8,18.65,5.6,27.97,8.4,1.55.47,2.02,1.1,2.02,2.73v31.15Z"/>
</svg>